<svg xmlns="http://www.w3.org/2000/svg" viewBox="0 0 320 420" role="img" aria-label="FC KUMANO logo">
  <rect width="320" height="420" fill="#cf1b24"/>
  <rect x="82" width="156" height="420" fill="#24201f"/>
  <g fill="#f5c018">
    <polygon points="80,34 87,55 109,55 91,68 98,89 80,76 62,89 69,68 51,55 73,55"/>
    <polygon points="160,10 167,31 189,31 171,44 178,65 160,52 142,65 149,44 131,31 153,31"/>
    <polygon points="240,34 247,55 269,55 251,68 258,89 240,76 222,89 229,68 211,55 233,55"/>
  </g>
  <ellipse cx="160" cy="220" rx="116" ry="144" fill="#fff" stroke="#0d0d0d" stroke-width="8"/>
  <ellipse cx="160" cy="220" rx="106" ry="134" fill="none" stroke="#cf1b24" stroke-width="7"/>
  <path d="M74 177c32-52 140-66 172-18" fill="none"/>
  <defs>
    <path id="topArc" d="M74 177c32-52 140-66 172-18"/>
  </defs>
  <text font-family="Arial Black, Arial, sans-serif" font-size="24" fill="#121212" letter-spacing="1">
    <textPath href="#topArc" startOffset="50%" text-anchor="middle">TOKYO ITABASHI</textPath>
  </text>
  <text x="160" y="210" text-anchor="middle" font-family="Arial Black, Arial, sans-serif" font-size="28" fill="#121212">1986</text>
  <rect x="58" y="226" width="204" height="54" rx="4" fill="#0d0d0d"/>
  <text x="160" y="264" text-anchor="middle" font-family="Georgia, serif" font-weight="700" font-size="34" fill="#fff" letter-spacing="1">FC KUMANO</text>
  <g>
    <rect x="78" y="292" width="24" height="76" fill="#1f1d1d"/>
    <rect x="102" y="292" width="16" height="76" fill="#cf1b24"/>
    <rect x="118" y="292" width="24" height="76" fill="#1f1d1d"/>
    <rect x="142" y="292" width="16" height="76" fill="#cf1b24"/>
    <rect x="158" y="292" width="24" height="76" fill="#1f1d1d"/>
    <rect x="182" y="292" width="16" height="76" fill="#cf1b24"/>
    <rect x="198" y="292" width="24" height="76" fill="#1f1d1d"/>
  </g>
  <g transform="translate(160 334)">
    <polygon points="0,-34 9,-8 36,-8 14,8 22,34 0,18 -22,34 -14,8 -36,-8 -9,-8" fill="#f5c018" stroke="#fff" stroke-width="4"/>
  </g>
</svg>
